<svg width="773" height="162" viewBox="0 0 773 162" fill="none" xmlns="http://www.w3.org/2000/svg">
<path d="M140.112 3.2L150.696 8.408C143.528 20.056 135.016 30.416 125.16 39.488C115.416 48.56 102.424 57.576 86.184 66.536C89.32 82.776 93.184 95.768 97.776 105.512C102.368 115.368 108.36 120.856 115.752 121.976V129.704C114.856 129.816 113.68 129.872 112.224 129.872C104.72 129.872 97.44 124.664 90.384 114.248C83.44 103.832 77.168 88.432 71.568 68.048C66.752 83.168 59.416 95.152 49.56 104C39.704 112.736 29.456 117.104 18.816 117.104C13.328 117.104 8.792 115.592 5.208 112.568C1.736 109.656 0 105.624 0 100.472C0 95.208 2.352 89.776 7.056 84.176C11.76 78.576 18.2 73.872 26.376 70.064L30.24 76.112C20.16 83.28 15.12 90 15.12 96.272C15.12 99.296 16.128 101.76 18.144 103.664C20.16 105.456 22.792 106.352 26.04 106.352C33.656 106.352 40.208 103.16 45.696 96.776C51.296 90.28 56.28 78.968 60.648 62.84C66.136 42.568 71.736 29.296 77.448 23.024C80.024 20.112 83.776 16.92 88.704 13.448C80.976 13.672 73.08 15.016 65.016 17.48C56.952 19.832 49.896 23.416 43.848 28.232C37.8 32.936 34.776 38.2 34.776 44.024C34.776 51.528 38.192 57.52 45.024 62L41.664 67.208C35.392 64.184 30.464 60.264 26.88 55.448C23.296 50.632 21.504 45.648 21.504 40.496C21.504 33.44 25.368 26.776 33.096 20.504C40.824 14.232 50.288 9.35999 61.488 5.88799C72.8 2.416 83.888 0.679998 94.752 0.679998C101.472 0.679998 104.832 2.136 104.832 5.04799C104.832 6.95199 102.872 9.36 98.952 12.272C91.784 17.648 86.24 24.648 82.32 33.272C78.512 41.896 75.376 51.976 72.912 63.512C85.68 58.808 97.888 51.024 109.536 40.16C121.296 29.184 131.488 16.864 140.112 3.2ZM216.034 87.032L219.898 89.888C218.33 93.248 215.418 96.44 211.162 99.464C207.018 102.488 203.21 104 199.738 104C193.13 104 189.826 100.528 189.826 93.584C189.826 90.336 190.666 86.472 192.346 81.992L186.13 88.376C180.082 94.536 174.818 98.68 170.338 100.808C165.97 102.936 161.658 104 157.402 104C153.146 104 149.898 102.824 147.658 100.472C145.53 98.008 144.466 94.648 144.466 90.392C144.466 82.552 147.49 74.824 153.538 67.208C159.586 59.48 167.314 53.208 176.722 48.392C186.13 43.576 195.538 41.112 204.946 41L205.282 46.544L198.226 48.056C188.034 50.296 179.018 54.776 171.178 61.496C163.45 68.216 159.586 74.936 159.586 81.656C159.586 88.264 162.274 91.568 167.65 91.568C172.69 91.568 178.906 88.04 186.298 80.984C193.69 73.928 199.85 65.64 204.778 56.12L211.834 60.32C204.89 74.32 201.418 83.224 201.418 87.032C201.418 88.6 201.922 89.944 202.93 91.064C204.05 92.072 205.114 92.576 206.122 92.576C207.242 92.576 207.97 92.52 208.306 92.408C208.642 92.296 208.978 92.184 209.314 92.072C209.65 91.848 210.042 91.568 210.49 91.232C211.05 90.896 211.498 90.56 211.834 90.224C212.282 89.888 212.954 89.384 213.85 88.712C214.746 88.04 215.474 87.48 216.034 87.032ZM339.893 82.16L343.421 85.52C337.037 96.944 329.701 102.656 321.413 102.656C318.053 102.656 315.421 101.76 313.517 99.968C311.725 98.064 310.829 95.6 310.829 92.576C310.829 89.44 312.677 84.12 316.373 76.616C320.069 69.112 322.029 63.4 322.253 59.48C322.365 57.688 321.805 56.232 320.573 55.112C319.453 53.992 317.885 53.432 315.869 53.432C313.853 53.432 311.781 53.936 309.653 54.944C307.637 55.84 305.621 57.352 303.605 59.48C301.701 61.608 299.909 63.68 298.229 65.696C296.661 67.712 294.869 70.568 292.853 74.264C290.949 77.96 289.325 81.04 287.981 83.504C285.629 88.096 282.269 94.984 277.901 104.168L267.821 100.64C267.821 100.304 269.669 93.976 273.365 81.656C277.061 69.336 278.909 62 278.909 59.648C278.909 57.296 278.349 55.616 277.229 54.608C276.109 53.488 274.709 52.928 273.029 52.928C267.989 52.928 260.989 59.2 252.029 71.744C243.181 84.288 237.525 94.984 235.061 103.832L225.485 100.64C226.045 94.704 228.677 84.064 233.381 68.72C238.085 53.264 242.061 42.736 245.309 37.136L252.869 39.824C249.397 47.552 246.989 54.104 245.645 59.48C244.301 64.744 243.125 70.4 242.117 76.448C251.749 62.672 259.813 53.04 266.309 47.552C272.805 41.952 278.685 39.152 283.949 39.152C289.661 39.152 292.517 42.008 292.517 47.72C292.517 49.96 291.509 54.384 289.493 60.992C287.589 67.6 286.077 72.808 284.957 76.616C300.413 51.752 314.245 39.32 326.453 39.32C329.477 39.32 331.885 40.272 333.677 42.176C335.469 43.968 336.365 46.712 336.365 50.408C336.365 53.992 334.237 59.984 329.981 68.384C325.837 76.784 323.765 82.104 323.765 84.344C323.765 86.472 324.213 88.04 325.109 89.048C326.005 90.056 327.125 90.56 328.469 90.56C331.381 90.56 335.189 87.76 339.893 82.16ZM397.884 84.176L401.748 87.2C398.276 92.016 393.516 96.048 387.468 99.296C381.42 102.432 375.54 104 369.828 104C364.116 104 359.524 102.32 356.052 98.96C352.58 95.6 350.844 91.176 350.844 85.688C350.844 75.384 356.276 65.248 367.14 55.28C378.116 45.312 389.204 40.328 400.404 40.328C407.796 40.328 411.492 43.24 411.492 49.064C411.492 55.112 407.572 61.216 399.732 67.376C392.004 73.536 381.084 79.136 366.972 84.176C367.98 86.752 369.548 88.768 371.676 90.224C373.804 91.68 375.988 92.408 378.228 92.408C383.044 92.408 389.596 89.664 397.884 84.176ZM366.132 79.136C375.204 76 382.988 72.08 389.484 67.376C395.98 62.672 399.228 58.36 399.228 54.44C399.228 52.984 398.668 51.696 397.548 50.576C396.428 49.456 395.14 48.896 393.684 48.896C388.42 48.896 382.708 52.2 376.548 58.808C370.5 65.304 367.028 72.08 366.132 79.136ZM457.418 84.176L460.778 86.864C457.418 91.344 452.77 95.32 446.834 98.792C441.01 102.264 436.306 104 432.722 104C429.25 104 426.562 103.272 424.658 101.816C422.866 100.248 421.97 98.232 421.97 95.768C421.97 93.304 424.098 89.664 428.354 84.848C432.61 79.92 436.866 74.992 441.122 70.064C445.49 65.136 447.674 61.552 447.674 59.312C447.674 57.072 447.058 55.224 445.826 53.768C444.706 52.2 442.802 51.416 440.114 51.416C437.426 51.416 432.554 53.712 425.498 58.304L423.986 52.424C429.026 48.504 434.346 45.312 439.946 42.848C445.658 40.384 450.082 39.152 453.218 39.152C456.354 39.152 458.762 39.88 460.442 41.336C462.234 42.792 463.13 45.088 463.13 48.224C463.13 51.36 459.602 57.968 452.546 68.048C451.09 70.064 449.578 72.192 448.01 74.432C446.442 76.672 445.266 78.296 444.482 79.304C443.81 80.312 443.138 81.376 442.466 82.496C441.346 84.176 440.786 85.52 440.786 86.528C440.786 87.424 441.234 88.32 442.13 89.216C443.138 90.112 444.09 90.56 444.986 90.56C445.994 90.56 446.834 90.504 447.506 90.392C448.178 90.168 448.906 89.832 449.69 89.384C450.474 88.824 451.146 88.376 451.706 88.04L457.418 84.176ZM517.67 54.104C520.582 58.92 522.038 64.24 522.038 70.064C522.038 79.136 518.902 87.256 512.63 94.424C506.358 101.48 498.966 105.008 490.454 105.008C483.958 105.008 478.862 103.16 475.166 99.464C471.582 95.656 469.79 90.448 469.79 83.84C469.79 73.2 473.934 63.68 482.222 55.28C490.51 46.768 499.806 42.512 510.11 42.512C512.014 42.512 513.358 42.568 514.142 42.68L514.646 48.224C505.686 48.224 498.238 50.8 492.302 55.952C486.366 61.104 483.398 67.712 483.398 75.776C483.398 80.592 484.574 84.512 486.926 87.536C489.278 90.448 492.694 91.904 497.174 91.904C501.766 91.904 505.406 89.888 508.094 85.856C510.782 81.824 512.126 77.12 512.126 71.744C512.126 66.256 511.062 61.272 508.934 56.792L517.67 54.104ZM553.72 73.088C562.232 60.32 569.624 51.64 575.896 47.048C582.168 42.344 587.656 39.992 592.36 39.992C597.064 39.992 600.704 41.448 603.28 44.36C605.856 47.16 607.144 50.744 607.144 55.112C607.144 67.208 602.776 78.408 594.04 88.712C585.416 98.904 575.672 104 564.808 104C559.992 104 556.184 103.16 553.384 101.48L557.416 94.256C563.352 95.04 566.992 95.432 568.336 95.432C574.384 95.432 580.04 91.904 585.304 84.848C590.568 77.792 593.2 70.568 593.2 63.176C593.2 60.376 592.36 58.08 590.68 56.288C589.112 54.384 587.04 53.432 584.464 53.432C578.304 53.432 571.304 58.864 563.464 69.728C555.736 80.592 548.456 94.032 541.624 110.048C534.904 126.176 529.024 143.312 523.984 161.456L513.904 157.928C514.128 157.256 516.256 151.432 520.288 140.456C524.208 129.592 528.072 118.784 531.88 108.032C542.408 78.464 547.672 62.28 547.672 59.48C547.672 52.312 546.216 45.816 543.304 39.992L551.704 35.792C555.176 40.608 556.912 45.704 556.912 51.08C556.912 56.344 555.848 63.68 553.72 73.088ZM685.037 84.344L688.565 87.2C686.661 91.904 683.637 95.88 679.493 99.128C675.461 102.376 671.765 104 668.405 104C665.157 104 662.581 102.88 660.677 100.64C658.773 98.288 657.821 95.264 657.821 91.568C657.821 87.872 658.437 83.112 659.669 77.288C654.405 85.576 648.749 92.072 642.701 96.776C636.653 101.48 631.557 103.832 627.413 103.832C621.141 103.832 618.005 100.08 618.005 92.576C618.005 85.072 620.581 74.992 625.733 62.336C630.997 49.568 634.749 42.288 636.989 40.496L645.053 44.024C640.461 51.416 636.989 58.696 634.637 65.864C632.285 73.032 631.109 77.848 631.109 80.312C631.109 82.664 631.837 84.568 633.293 86.024C634.861 87.48 636.653 88.208 638.669 88.208C643.149 88.208 648.693 84.12 655.301 75.944C662.021 67.656 668.853 55.336 675.797 38.984L684.365 42.848C684.141 43.744 681.565 50.24 676.637 62.336C671.821 74.432 669.413 81.712 669.413 84.176C669.413 86.528 669.917 88.32 670.925 89.552C672.045 90.784 673.109 91.4 674.117 91.4C675.237 91.4 676.077 91.344 676.637 91.232C677.197 91.12 677.757 90.896 678.317 90.56C678.877 90.224 679.325 89.944 679.661 89.72C680.109 89.496 680.613 89.104 681.173 88.544L682.349 87.2C682.685 86.976 683.133 86.528 683.693 85.856C684.365 85.072 684.813 84.568 685.037 84.344ZM769.037 84.344L772.565 87.2C770.661 91.904 767.637 95.88 763.493 99.128C759.461 102.376 755.765 104 752.405 104C749.157 104 746.581 102.88 744.677 100.64C742.773 98.288 741.821 95.264 741.821 91.568C741.821 87.872 742.437 83.112 743.669 77.288C738.405 85.576 732.749 92.072 726.701 96.776C720.653 101.48 715.557 103.832 711.413 103.832C705.141 103.832 702.005 100.08 702.005 92.576C702.005 85.072 704.581 74.992 709.733 62.336C714.997 49.568 718.749 42.288 720.989 40.496L729.053 44.024C724.461 51.416 720.989 58.696 718.637 65.864C716.285 73.032 715.109 77.848 715.109 80.312C715.109 82.664 715.837 84.568 717.293 86.024C718.861 87.48 720.653 88.208 722.669 88.208C727.149 88.208 732.693 84.12 739.301 75.944C746.021 67.656 752.853 55.336 759.797 38.984L768.365 42.848C768.141 43.744 765.565 50.24 760.637 62.336C755.821 74.432 753.413 81.712 753.413 84.176C753.413 86.528 753.917 88.32 754.925 89.552C756.045 90.784 757.109 91.4 758.117 91.4C759.237 91.4 760.077 91.344 760.637 91.232C761.197 91.12 761.757 90.896 762.317 90.56C762.877 90.224 763.325 89.944 763.661 89.72C764.109 89.496 764.613 89.104 765.173 88.544L766.349 87.2C766.685 86.976 767.133 86.528 767.693 85.856C768.365 85.072 768.813 84.568 769.037 84.344Z" fill="white"/>
</svg>
