<svg width="15" height="15" viewBox="0 0 15 15" fill="none" xmlns="http://www.w3.org/2000/svg">
<path d="M12.1894 0.0761719H2.08599C0.945282 0.0761719 0.0761719 0.945285 0.0761719 2.08599V12.1894C0.0761719 13.3301 0.945282 14.1993 2.08599 14.1993H12.1894C13.3301 14.1993 14.1992 13.3301 14.1992 12.1894V2.08599C14.1992 0.945285 13.3301 0.0761719 12.1894 0.0761719ZM7.13771 11.3746C9.47345 11.3746 11.3746 9.52777 11.3746 7.30067C11.3746 6.92043 11.3203 6.48588 11.2117 6.15996H12.4067V11.9178C12.4067 12.1894 12.1894 12.461 11.8635 12.461H2.41191C2.14032 12.461 1.86872 12.2437 1.86872 11.9178V6.10564H3.11807C3.00943 6.48588 2.95511 6.86611 2.95511 7.24635C2.90079 9.52777 4.80197 11.3746 7.13771 11.3746ZM7.13771 9.74505C5.61676 9.74505 4.42173 8.55002 4.42173 7.08339C4.42173 5.61677 5.61676 4.42173 7.13771 4.42173C8.65866 4.42173 9.85368 5.61677 9.85368 7.08339C9.85368 8.60434 8.65866 9.74505 7.13771 9.74505ZM12.3524 3.93286C12.3524 4.25877 12.0808 4.53037 11.7549 4.53037H10.2339C9.908 4.53037 9.63641 4.25877 9.63641 3.93286V2.46623C9.63641 2.14031 9.908 1.86872 10.2339 1.86872H11.7549C12.0808 1.86872 12.3524 2.14031 12.3524 2.46623V3.93286Z" fill="#545155"/>
</svg>
