<svg width="18" height="11" viewBox="0 0 18 11" fill="none" xmlns="http://www.w3.org/2000/svg">
<path d="M17.1876 9.21088C17.1876 9.14239 17.1191 9.14239 17.1191 9.0739C16.8452 8.52595 16.2287 7.84103 15.4068 7.0876C14.9958 6.74513 14.7904 6.47116 14.6534 6.33417C14.4479 6.0602 14.4479 5.85473 14.5164 5.58075C14.5849 5.37527 14.8588 5.0328 15.3383 4.41636C15.6123 4.07389 15.7493 3.86842 15.9547 3.66294C16.9821 2.29308 17.4616 1.40266 17.3246 0.9917L17.2561 0.923213C17.1876 0.85472 17.1191 0.786229 16.9821 0.786229C16.8451 0.717736 16.6397 0.717736 16.4342 0.786229H13.8315C13.763 0.786229 13.763 0.786229 13.626 0.786229C13.5575 0.786229 13.489 0.786229 13.489 0.786229H13.4205H13.352L13.2835 0.854716C13.215 0.923209 13.215 0.923207 13.215 0.9917C12.941 1.74513 12.5986 2.36156 12.2561 3.0465C12.0506 3.38896 11.8451 3.73143 11.6397 4.00541C11.4342 4.27938 11.2972 4.48486 11.1602 4.62184C11.0232 4.75883 10.8862 4.82732 10.8177 4.96431C10.7493 5.0328 10.6123 5.1013 10.6123 5.0328C10.5438 5.0328 10.4753 5.0328 10.4753 4.96431C10.4068 4.89581 10.3383 4.82732 10.2698 4.75883C10.2013 4.69033 10.2013 4.55335 10.1328 4.41636C10.1328 4.27937 10.1328 4.14239 10.1328 4.07389C10.1328 4.0054 10.1328 3.79993 10.1328 3.66294C10.1328 3.45746 10.1328 3.32047 10.1328 3.25198C10.1328 3.0465 10.1328 2.77253 10.1328 2.49856C10.1328 2.22459 10.1328 2.0191 10.1328 1.88211C10.1328 1.74513 10.1328 1.53965 10.1328 1.40266C10.1328 1.19718 10.1328 1.06019 10.1328 0.9917C10.1328 0.923207 10.0643 0.786225 10.0643 0.717732C9.99584 0.649238 9.92734 0.580743 9.85884 0.51225C9.79035 0.443757 9.65337 0.443759 9.58487 0.375266C9.24241 0.306772 8.83146 0.238281 8.35201 0.238281C7.25611 0.238281 6.50269 0.306777 6.22871 0.443763C6.09173 0.512256 5.95474 0.580745 5.88625 0.717732C5.74926 0.854718 5.74926 0.923213 5.81775 0.923213C6.16021 0.991706 6.43419 1.12869 6.57118 1.33417L6.63968 1.47116C6.70817 1.53965 6.70816 1.67663 6.77665 1.88211C6.84514 2.08759 6.84515 2.29307 6.84515 2.56705C6.84515 2.978 6.84515 3.38897 6.84515 3.66294C6.84515 4.00541 6.77665 4.21088 6.77665 4.41636C6.77665 4.62184 6.70817 4.75883 6.63968 4.82732C6.57118 4.96431 6.57117 5.0328 6.50268 5.0328C6.50268 5.0328 6.50268 5.10129 6.43418 5.10129C6.36569 5.10129 6.2972 5.16979 6.16021 5.16979C6.09172 5.16979 5.95474 5.1013 5.88625 5.0328C5.74926 4.96431 5.61227 4.82733 5.54378 4.69034C5.40679 4.55335 5.2698 4.34787 5.13282 4.07389C4.99583 3.79992 4.79034 3.52595 4.65336 3.11499L4.51638 2.84102C4.44789 2.70404 4.3109 2.43006 4.17392 2.0876C4.03693 1.74513 3.89994 1.47116 3.76295 1.12869C3.69446 0.991708 3.62598 0.923209 3.55748 0.854716H3.48899C3.48899 0.854716 3.42048 0.786229 3.35199 0.786229C3.2835 0.786229 3.21501 0.717732 3.14652 0.717732H0.68076C0.406787 0.717732 0.269803 0.786223 0.20131 0.854716L0.132812 0.923213C0.132812 0.923213 0.132812 0.991704 0.132812 1.0602C0.132812 1.12869 0.132817 1.19718 0.20131 1.33417C0.543776 2.15608 0.954733 2.97801 1.36569 3.79993C1.77665 4.55335 2.18761 5.23828 2.46159 5.71774C2.80405 6.19719 3.07802 6.67664 3.42049 7.0876C3.76295 7.49856 3.96843 7.77253 4.03692 7.90952C4.17391 8.0465 4.2424 8.11499 4.31089 8.18349L4.51638 8.38897C4.65337 8.52595 4.85884 8.73143 5.13282 8.93691C5.40679 9.14239 5.74925 9.34787 6.09172 9.55335C6.43418 9.75883 6.84515 9.89582 7.25611 10.0328C7.73556 10.1698 8.14652 10.2383 8.55748 10.1698H9.58487C9.79035 10.1698 9.92735 10.1013 10.0643 9.96431L10.1328 9.89581C10.1328 9.82732 10.2013 9.82732 10.2013 9.75883C10.2013 9.69034 10.2013 9.62185 10.2013 9.48486C10.2013 9.21089 10.2013 9.00541 10.2698 8.79993C10.3383 8.59445 10.3383 8.45747 10.4068 8.32048C10.4753 8.18349 10.5438 8.11499 10.6123 8.0465C10.6808 7.97801 10.7493 7.90952 10.7493 7.90952H10.8177C10.9547 7.84102 11.1602 7.90951 11.2972 8.0465C11.5027 8.18349 11.7082 8.38897 11.8451 8.59445C11.9821 8.79993 12.1876 9.00541 12.4616 9.27938C12.7356 9.55335 12.941 9.75883 13.078 9.82733L13.2835 9.96431C13.4205 10.0328 13.5575 10.1013 13.763 10.1698C13.9684 10.2383 14.1054 10.2383 14.2424 10.2383L16.5712 10.1698C16.7767 10.1698 16.9821 10.1013 17.1191 10.0328C17.2561 9.96432 17.3246 9.89582 17.3246 9.75883C17.3246 9.69034 17.3246 9.55336 17.3246 9.48486C17.1876 9.34788 17.1876 9.27938 17.1876 9.21088Z" fill="#545155"/>
</svg>
